<?xml version="1.0" standalone="no"?><svg xmlns="http://www.w3.org/2000/svg" viewBox="0 0 1440 320"><path fill="#000b76" fill-opacity="1" d="M0,64L24,69.3C48,75,96,85,144,96C192,107,240,117,288,154.7C336,192,384,256,432,272C480,288,528,256,576,224C624,192,672,160,720,133.3C768,107,816,85,864,80C912,75,960,85,1008,117.3C1056,149,1104,203,1152,208C1200,213,1248,171,1296,133.3C1344,96,1392,64,1416,48L1440,32L1440,0L1416,0C1392,0,1344,0,1296,0C1248,0,1200,0,1152,0C1104,0,1056,0,1008,0C960,0,912,0,864,0C816,0,768,0,720,0C672,0,624,0,576,0C528,0,480,0,432,0C384,0,336,0,288,0C240,0,192,0,144,0C96,0,48,0,24,0L0,0Z"></path></svg>